<svg xmlns="http://www.w3.org/2000/svg" width="720" height="1280" viewBox="0 0 720 1280"><rect width="100%" height="100%" fill="#DDDDDD"/><path fill="#999999" d="M145.185 609.27h42.45v4.55q0 2.04-.42 3.3-.43 1.25-.85 2.1l-23.29 47.94q-.72 1.49-2.04 2.53t-3.53 1.04h-7.61l23.76-46.96q.81-1.45 1.6-2.66.78-1.21 1.76-2.32h-29.41q-.98 0-1.7-.72t-.72-1.7zm71.27 51.68h15.77q1.7 0 2.7.96.99.96.99 2.53v6.29h-42.16v-3.49q0-1.06.45-2.23t1.42-2.1l18.66-18.7q2.34-2.38 4.19-4.55 1.85-2.16 3.08-4.29 1.23-2.12 1.89-4.31t.66-4.62q0-2.21-.64-3.88-.63-1.68-1.8-2.83t-2.81-1.72q-1.64-.58-3.68-.58-1.87 0-3.46.54-1.59.53-2.82 1.48-1.24.96-2.09 2.23-.85 1.28-1.27 2.81-.73 1.95-1.87 2.59-1.15.64-3.32.3l-5.52-.98q.63-4.42 2.46-7.75 1.83-3.34 4.57-5.57t6.29-3.36 7.63-1.13q4.25 0 7.78 1.26 3.53 1.25 6.03 3.55 2.51 2.29 3.91 5.52t1.4 7.18q0 3.4-.99 6.29-1 2.89-2.68 5.53-1.68 2.63-3.93 5.1-2.26 2.46-4.72 5.01l-13.86 14.16q2-.6 3.98-.92 1.97-.32 3.76-.32m70.55-20.95q0 8.03-1.72 13.96t-4.76 9.8-7.18 5.76q-4.15 1.89-8.95 1.89t-8.9-1.89-7.12-5.76-4.72-9.8-1.7-13.96q0-8.07 1.7-13.98t4.72-9.78q3.02-3.86 7.12-5.75 4.1-1.9 8.9-1.9t8.95 1.9q4.14 1.89 7.18 5.75 3.04 3.87 4.76 9.78t1.72 13.98m-10.84 0q0-6.67-.97-11.05-.98-4.38-2.62-6.97-1.63-2.59-3.76-3.63-2.12-1.04-4.42-1.04-2.25 0-4.36 1.04-2.1 1.04-3.71 3.63-1.62 2.59-2.58 6.97-.95 4.38-.95 11.05t.95 11.05q.96 4.38 2.58 6.97 1.61 2.59 3.71 3.64 2.11 1.04 4.36 1.04 2.3 0 4.42-1.04 2.13-1.05 3.76-3.64 1.64-2.59 2.62-6.97.97-4.38.97-11.05m78.33 16.66-5.57 5.48-14.4-14.4-14.54 14.49-5.57-5.48 14.54-14.58-13.86-13.86 5.53-5.52 13.85 13.85 13.77-13.77 5.61 5.53-13.81 13.81zm58.18 6.21h11.05v7.86h-34v-7.86h12.46v-35.83q0-2.13.12-4.38l-8.84 7.4q-.76.59-1.51.74-.74.15-1.4.02t-1.17-.44q-.51-.32-.76-.7l-3.32-4.55 18.75-15.94h8.62zm42.29-1.92h15.77q1.7 0 2.7.96t1 2.53v6.29h-42.16v-3.49q0-1.06.44-2.23.45-1.17 1.43-2.1l18.65-18.7q2.34-2.38 4.19-4.55 1.85-2.16 3.08-4.29 1.23-2.12 1.89-4.31t.66-4.62q0-2.21-.64-3.88-.63-1.68-1.8-2.83t-2.81-1.72q-1.63-.58-3.67-.58-1.87 0-3.47.54-1.59.53-2.82 1.48-1.24.96-2.09 2.23-.85 1.28-1.27 2.81-.72 1.95-1.87 2.59t-3.32.3l-5.52-.98q.64-4.42 2.46-7.75 1.83-3.34 4.57-5.57t6.29-3.36 7.63-1.13q4.25 0 7.78 1.26 3.53 1.25 6.03 3.55 2.51 2.29 3.91 5.52 1.41 3.23 1.41 7.18 0 3.4-1 6.29t-2.68 5.53q-1.68 2.63-3.93 5.1-2.25 2.46-4.72 5.01l-13.85 14.16q1.99-.6 3.97-.92t3.76-.32m48.03 2.26q2.59 0 4.54-.75 1.96-.74 3.3-2.06t2.02-3.14q.68-1.83.68-3.96 0-5.05-2.81-7.65-2.8-2.59-7.73-2.59t-7.74 2.59q-2.8 2.6-2.8 7.65 0 2.13.68 3.96.68 1.82 2.01 3.14 1.34 1.32 3.3 2.06 1.95.75 4.55.75m0-46.71q-2.34 0-4.04.72t-2.83 1.94q-1.12 1.21-1.66 2.78-.53 1.57-.53 3.31 0 1.83.45 3.55t1.51 3.06 2.8 2.15q1.75.81 4.3.81t4.29-.81 2.8-2.15q1.07-1.34 1.51-3.06.45-1.72.45-3.55 0-1.74-.55-3.31-.56-1.57-1.66-2.78-1.11-1.22-2.81-1.94t-4.03-.72m10.37 22.18q5.61 1.83 8.28 5.59 2.68 3.76 2.68 9.2 0 4.08-1.55 7.4-1.55 3.31-4.36 5.65-2.8 2.34-6.73 3.61-3.93 1.28-8.69 1.28t-8.7-1.28q-3.93-1.27-6.73-3.61-2.81-2.34-4.36-5.65-1.55-3.32-1.55-7.4 0-5.44 2.68-9.2t8.29-5.59q-4.47-1.86-6.7-5.31-2.23-3.44-2.23-8.29 0-3.48 1.42-6.5 1.43-3.02 3.98-5.25t6.1-3.48q3.55-1.26 7.8-1.26t7.79 1.26q3.55 1.25 6.1 3.48t3.98 5.25q1.42 3.02 1.42 6.5 0 4.85-2.23 8.29-2.23 3.45-6.69 5.31m61.45 1.32q0 8.03-1.72 13.96t-4.76 9.8-7.18 5.76q-4.15 1.89-8.95 1.89t-8.9-1.89-7.12-5.76-4.72-9.8-1.7-13.96q0-8.07 1.7-13.98t4.72-9.78q3.02-3.86 7.12-5.75 4.1-1.9 8.9-1.9t8.95 1.9q4.14 1.89 7.18 5.75 3.04 3.87 4.76 9.78t1.72 13.98m-10.84 0q0-6.67-.97-11.05-.98-4.38-2.62-6.97-1.63-2.59-3.76-3.63-2.12-1.04-4.42-1.04-2.25 0-4.36 1.04-2.1 1.04-3.71 3.63-1.62 2.59-2.58 6.97-.95 4.38-.95 11.05t.95 11.05q.96 4.38 2.58 6.97 1.61 2.59 3.71 3.64 2.11 1.04 4.36 1.04 2.3 0 4.42-1.04 2.13-1.05 3.76-3.64 1.64-2.59 2.62-6.97.97-4.38.97-11.05"/></svg>