<svg width="32" height="32" viewBox="0 0 100 100" fill="none" xmlns="http://www.w3.org/2000/svg">
  <defs>
    <linearGradient id="mobius-gradient" x1="0%" y1="0%" x2="100%" y2="0%">
      <stop offset="0%" stop-color="#5b21b6" />
      <stop offset="50%" stop-color="#8b5cf6" />
      <stop offset="100%" stop-color="#a78bfa" />
    </linearGradient>
  </defs>
  <!-- Back part of the strip -->
  <path
    d="M20 50 C20 35, 35 25, 50 35 C65 45, 80 35, 80 50 C80 65, 65 75, 50 65 C35 55, 20 65, 20 50"
    stroke="#333333"
    stroke-width="6"
    stroke-linecap="round"
    fill="none"
  />
  <!-- Front part of the strip with gradient -->
  <path
    d="M20 50 C20 35, 35 25, 50 35 C65 45, 80 35, 80 50"
    stroke="url(#mobius-gradient)"
    stroke-width="6"
    stroke-linecap="round"
    fill="none"
  />
  <path
    d="M80 50 C80 65, 65 75, 50 65 C35 55, 20 65, 20 50"
    stroke="url(#mobius-gradient)"
    stroke-width="6"
    stroke-linecap="round"
    fill="none"
  />
</svg>
